<?xml version="1.0" encoding="utf-8" ?>
<svg xmlns="http://www.w3.org/2000/svg" xmlns:xlink="http://www.w3.org/1999/xlink" width="1229" height="1229">
	<path fill="#1D3759" transform="matrix(1.2002 0 0 1.2002 -3.05176e-05 0)" d="M328.402 36.5808L329.705 36.7496C321.442 47.9837 314.557 60.2474 312.019 74.1056C309.621 87.1936 310.911 103.069 319.152 114.024C322.548 118.538 326.978 122.167 330.172 126.87L330.557 127.447C355.173 110.703 385.468 105.426 414.635 109.378C423.143 104.21 431.885 100.57 441.694 98.7067C469.658 93.3953 498.088 104.368 520.949 120.015C557.838 145.262 581.916 188.464 574.707 233.92C572.541 247.578 565.562 259.696 569.624 273.807C572.336 283.228 577.866 292.849 583.291 300.995C589.779 310.737 601.016 323.287 603.158 334.712C602.912 335.424 602.953 335.774 602.276 336.208C597.651 339.172 581.322 334.825 576.178 333.81C573.704 342.567 569.115 349.213 563.937 356.561C584.621 354.128 607.45 354.875 626.824 363.132C626.891 361.282 626.96 359.417 627.207 357.58C630.09 336.14 644.992 312.042 659.29 295.978C667.085 287.22 676.084 279.273 685.484 272.272C718.74 247.503 760.463 235.746 801.718 241.865Q803.58 242.13 805.434 242.441Q807.289 242.752 809.136 243.109Q810.982 243.466 812.819 243.869Q814.656 244.271 816.482 244.719Q818.309 245.167 820.124 245.66Q821.938 246.153 823.741 246.691Q825.543 247.228 827.331 247.811Q829.119 248.393 830.892 249.019Q832.665 249.646 834.422 250.316Q836.18 250.986 837.92 251.699Q839.66 252.412 841.381 253.169Q843.103 253.925 844.806 254.724Q846.508 255.522 848.191 256.363Q849.873 257.203 851.534 258.085Q853.195 258.967 854.833 259.89Q856.472 260.813 858.087 261.776Q859.702 262.739 861.293 263.742Q862.884 264.745 864.45 265.787Q866.015 266.829 867.554 267.909Q869.094 268.989 870.606 270.107Q872.118 271.226 873.602 272.381Q875.086 273.536 876.541 274.728Q877.995 275.919 879.42 277.147Q880.845 278.374 882.239 279.636Q883.633 280.898 884.996 282.195Q886.358 283.491 887.688 284.821Q889.018 286.151 890.314 287.513Q891.611 288.875 892.873 290.269Q894.135 291.663 895.363 293.087Q896.59 294.512 897.782 295.967Q898.974 297.422 900.129 298.905Q901.285 300.389 902.403 301.901Q903.455 303.318 904.471 304.76Q905.487 306.202 906.468 307.669Q907.448 309.136 908.393 310.626Q909.337 312.116 910.244 313.63Q911.151 315.143 912.02 316.678Q912.89 318.213 913.721 319.769Q914.553 321.326 915.346 322.902Q916.138 324.478 916.892 326.073Q917.646 327.668 918.36 329.282Q919.074 330.895 919.749 332.525Q920.423 334.156 921.057 335.802Q921.691 337.449 922.284 339.11Q922.877 340.772 923.429 342.448Q923.981 344.124 924.491 345.812Q925.002 347.501 925.47 349.202Q925.939 350.903 926.366 352.615Q926.793 354.327 927.177 356.049Q927.561 357.771 927.903 359.502Q928.245 361.233 928.544 362.971Q928.843 364.71 929.099 366.456Q929.356 368.201 929.569 369.953Q929.782 371.704 929.951 373.46Q930.121 375.216 930.248 376.976Q930.374 378.736 930.457 380.498Q930.541 382.261 930.58 384.025Q930.62 385.788 930.616 387.553Q930.612 389.317 930.565 391.081Q930.518 392.844 930.427 394.606Q930.336 396.368 930.202 398.128Q930.068 399.887 929.89 401.642Q929.713 403.398 929.492 405.148Q929.272 406.899 929.008 408.643Q930.235 409.101 931.452 409.588Q932.668 410.075 933.872 410.591Q935.076 411.107 936.267 411.652Q937.458 412.197 938.636 412.771Q939.814 413.345 940.977 413.947Q942.141 414.548 943.29 415.178Q944.438 415.808 945.572 416.465Q946.705 417.122 947.822 417.806Q948.939 418.491 950.039 419.202Q951.139 419.913 952.222 420.65Q953.305 421.387 954.37 422.151Q955.435 422.914 956.481 423.702Q957.527 424.491 958.553 425.305Q959.58 426.118 960.587 426.956Q961.594 427.794 962.58 428.657Q963.567 429.519 964.532 430.404Q965.497 431.29 966.441 432.199Q967.385 433.107 968.306 434.038Q969.228 434.969 970.126 435.922Q971.025 436.876 971.901 437.85Q972.776 438.824 973.628 439.82Q974.48 440.815 975.308 441.83Q976.135 442.846 976.938 443.881Q977.741 444.916 978.519 445.97Q979.297 447.024 980.049 448.097Q980.801 449.169 981.527 450.26Q982.253 451.35 982.953 452.458Q983.652 453.565 984.325 454.689Q984.998 455.814 985.643 456.953Q986.289 458.093 986.906 459.249Q987.524 460.404 988.114 461.574Q988.704 462.743 989.265 463.927C1002.73 492.496 1002.84 526.88 992.127 556.333C979.76 590.326 952.356 617.913 919.951 633.124C918.648 642.759 917.956 652.41 915.998 661.958C908.331 699.359 884.231 730.789 852.668 751.497C819.033 773.566 775.695 783.386 736.087 775.195C734.337 784.427 732.138 793.406 728.305 802.022C714.705 832.597 687.03 855.656 656.141 867.439Q654.611 868.025 653.068 868.578Q651.525 869.13 649.97 869.648Q648.416 870.166 646.85 870.65Q645.284 871.134 643.708 871.583Q642.132 872.031 640.546 872.446Q638.961 872.86 637.366 873.239Q635.772 873.618 634.169 873.961Q632.567 874.305 630.958 874.613Q629.348 874.922 627.732 875.194Q626.116 875.467 624.495 875.703Q622.873 875.94 621.247 876.141Q619.62 876.342 617.99 876.507Q616.359 876.672 614.726 876.801Q613.092 876.93 611.456 877.023Q609.82 877.116 608.182 877.173Q606.544 877.23 604.906 877.25Q603.267 877.271 601.628 877.255Q599.99 877.24 598.351 877.188Q596.714 877.136 595.077 877.048Q593.441 876.96 591.807 876.836Q590.173 876.712 588.542 876.552Q586.911 876.392 585.284 876.196Q583.657 876 582.034 875.768Q580.412 875.536 578.795 875.268Q577.179 875 575.568 874.697Q573.958 874.393 572.354 874.055Q570.751 873.716 569.156 873.342Q567.56 872.968 565.973 872.558Q564.386 872.149 562.809 871.705Q561.232 871.26 559.664 870.781Q558.097 870.303 556.541 869.789Q554.985 869.276 553.44 868.728C547.976 866.794 542.78 863.951 537.484 861.591C536.192 862.249 535.627 863.72 534.943 864.938C526.855 878.407 516.547 890.71 504.106 900.358C485.576 914.726 455.683 926.157 431.974 923.082Q429.997 928.95 427.106 934.425Q426.516 935.527 425.9 936.615Q425.283 937.702 424.641 938.774Q423.998 939.846 423.329 940.902Q422.66 941.958 421.966 942.997Q421.272 944.037 420.552 945.059Q419.833 946.081 419.088 947.085Q418.344 948.089 417.576 949.075Q416.807 950.061 416.015 951.028Q415.222 951.994 414.407 952.942Q413.591 953.889 412.752 954.815Q411.914 955.742 411.053 956.649Q410.192 957.555 409.309 958.44Q408.426 959.325 407.522 960.188Q406.618 961.051 405.693 961.891Q404.768 962.732 403.823 963.55Q402.878 964.368 401.913 965.163Q400.948 965.957 399.964 966.728Q398.98 967.499 397.978 968.246Q396.975 968.992 395.955 969.714Q394.934 970.436 393.896 971.133Q392.859 971.83 391.804 972.501Q390.75 973.172 389.679 973.817Q388.609 974.463 387.523 975.082Q386.437 975.701 385.336 976.293Q384.235 976.885 383.121 977.45Q382.006 978.016 380.878 978.554Q379.749 979.091 378.608 979.602Q377.467 980.112 376.314 980.594Q375.161 981.076 373.996 981.53Q372.831 981.984 371.656 982.409Q370.481 982.834 369.295 983.231Q368.11 983.628 366.915 983.995Q365.707 984.36 364.491 984.696Q363.275 985.031 362.051 985.337Q360.827 985.643 359.596 985.919Q358.365 986.195 357.128 986.441Q355.89 986.687 354.647 986.903Q353.404 987.119 352.156 987.304Q350.909 987.49 349.657 987.645Q348.404 987.8 347.149 987.924Q345.894 988.049 344.636 988.143Q343.377 988.237 342.117 988.3Q340.857 988.363 339.596 988.396Q338.335 988.429 337.073 988.431Q335.812 988.433 334.551 988.404Q333.289 988.375 332.029 988.316Q330.769 988.256 329.511 988.166Q328.252 988.076 326.996 987.955Q325.741 987.835 324.488 987.683Q323.236 987.532 321.987 987.35Q320.739 987.169 319.495 986.957Q318.251 986.745 317.013 986.503Q315.775 986.26 314.543 985.988Q313.311 985.716 312.086 985.414Q310.862 985.111 309.644 984.78Q308.427 984.448 307.219 984.086Q306.01 983.725 304.81 983.334Q303.611 982.943 302.421 982.524Q301.231 982.104 300.052 981.655Q298.873 981.207 297.705 980.73Q296.537 980.252 295.381 979.747Q294.225 979.241 293.082 978.708Q291.939 978.175 290.809 977.613Q289.679 977.052 288.563 976.464Q287.363 975.823 286.18 975.152Q284.996 974.482 283.829 973.782Q282.663 973.082 281.514 972.353Q280.365 971.625 279.235 970.868Q278.104 970.111 276.993 969.326Q275.882 968.542 274.791 967.73Q273.699 966.917 272.628 966.079Q271.557 965.24 270.508 964.374Q269.458 963.509 268.43 962.618Q267.402 961.727 266.397 960.811Q265.391 959.894 264.409 958.953Q263.427 958.012 262.468 957.047Q261.509 956.082 260.575 955.093Q259.641 954.104 258.731 953.093Q257.821 952.081 256.937 951.047Q256.053 950.014 255.195 948.958Q254.337 947.903 253.505 946.826Q252.673 945.75 251.869 944.653Q251.064 943.556 250.287 942.44Q249.509 941.323 248.76 940.188Q248.011 939.052 247.29 937.898Q246.569 936.745 245.877 935.574Q245.185 934.402 244.523 933.214Q243.86 932.026 243.227 930.822Q242.594 929.618 241.992 928.398Q241.389 927.179 240.816 925.945Q240.244 924.71 239.703 923.463Q239.161 922.215 238.651 920.954Q238.141 919.693 237.662 918.419Q237.183 917.146 236.736 915.861Q236.289 914.576 235.874 913.281Q235.459 911.985 235.076 910.68Q231.595 912.147 228.049 913.45Q224.503 914.753 220.9 915.889Q217.297 917.025 213.645 917.992Q209.993 918.96 206.3 919.756Q202.607 920.552 198.881 921.175Q195.155 921.798 191.404 922.247Q187.653 922.695 183.885 922.969Q180.118 923.242 176.341 923.34Q174.507 923.374 172.673 923.363Q170.839 923.352 169.006 923.296Q167.173 923.239 165.341 923.137Q163.51 923.036 161.682 922.888Q159.854 922.741 158.03 922.548Q156.206 922.356 154.387 922.118Q152.568 921.881 150.756 921.598Q148.944 921.315 147.139 920.988Q145.335 920.66 143.539 920.288Q141.743 919.916 139.957 919.499Q138.171 919.083 136.395 918.622Q134.62 918.162 132.857 917.657Q131.093 917.152 129.343 916.604Q127.593 916.056 125.856 915.465Q124.12 914.874 122.399 914.24Q120.678 913.605 118.974 912.929Q117.269 912.252 115.581 911.534Q113.894 910.815 112.225 910.055Q110.556 909.294 108.906 908.493Q107.256 907.692 105.627 906.85Q103.997 906.008 102.389 905.126Q100.781 904.243 99.1956 903.322Q97.6099 902.4 96.0476 901.439Q94.4852 900.478 92.9472 899.479Q91.4091 898.48 89.8963 897.443Q88.3835 896.406 86.8969 895.332Q85.4102 894.258 83.9506 893.147Q82.4911 892.036 81.0595 890.89Q79.6279 889.743 78.2251 888.562Q76.8224 887.38 75.4493 886.164Q74.0763 884.948 72.7338 883.698Q71.3914 882.449 70.0803 881.166Q68.7881 879.929 67.5268 878.66Q66.2656 877.391 65.0362 876.092Q63.8067 874.792 62.6098 873.463Q61.4129 872.133 60.2492 870.775Q59.0856 869.416 57.9559 868.029Q56.8262 866.642 55.7312 865.227Q54.6362 863.812 53.5765 862.371Q52.5169 860.93 51.4932 859.463Q50.4695 857.996 49.4824 856.504Q48.4954 855.012 47.5455 853.496Q46.5957 851.98 45.6836 850.441Q44.7715 848.902 43.8979 847.341Q43.0242 845.78 42.1894 844.198Q41.3546 842.615 40.5592 841.013Q39.7638 839.411 39.0083 837.789Q38.2528 836.168 37.5376 834.528Q36.8224 832.888 36.1481 831.231Q35.4737 829.574 34.8406 827.901Q34.2074 826.228 33.6159 824.54Q33.0243 822.851 32.4747 821.149Q31.9251 819.446 31.4178 817.731Q30.9105 816.016 30.4457 814.288Q29.981 812.56 29.5592 810.822Q29.1374 809.084 28.7587 807.335Q28.38 805.587 28.0447 803.83Q27.7094 802.072 27.4177 800.307Q27.126 798.542 26.878 796.771Q26.63 794.999 26.426 793.222Q26.2219 791.445 26.0619 789.663Q25.9019 787.881 25.786 786.096Q25.6702 784.311 25.5985 782.523Q25.5268 780.736 25.4994 778.947C24.8471 739.566 38.7388 703.526 66.0904 675.176C59.1137 658.397 56.7213 640.06 57.5187 622.001Q57.6059 620.371 57.7333 618.744Q57.8606 617.116 58.028 615.493Q58.1954 613.869 58.4027 612.25Q58.61 610.631 58.8571 609.018Q59.1042 607.404 59.391 605.797Q59.6778 604.19 60.004 602.591Q60.3303 600.992 60.6958 599.401Q61.0614 597.81 61.466 596.229Q61.8706 594.648 62.314 593.077Q62.7575 591.506 63.2394 589.947Q63.7214 588.387 64.2417 586.84Q64.7619 585.293 65.3201 583.759Q65.8783 582.225 66.474 580.706Q67.0698 579.186 67.7029 577.681Q68.3359 576.177 69.0058 574.688Q69.6756 573.2 70.382 571.729Q71.0883 570.257 71.8307 568.803Q72.573 567.35 73.351 565.915Q74.1289 564.48 74.9419 563.065Q75.7549 561.649 76.6026 560.254Q77.4502 558.859 78.332 557.486Q79.2137 556.112 80.129 554.761Q81.0443 553.409 81.9926 552.081Q82.9409 550.752 83.9216 549.448Q84.9023 548.143 85.9149 546.862Q86.9275 545.582 87.9712 544.327Q89.015 543.073 90.0894 541.844Q91.1638 540.615 92.2681 539.413Q93.3724 538.211 94.5059 537.037Q95.6395 535.862 96.8016 534.716Q97.9638 533.57 99.1538 532.453Q100.344 531.335 101.561 530.248C122.928 510.925 152.607 497.875 181.734 499.324C180.391 472.884 183.674 447.183 195.342 423.11C213.652 385.333 243.388 359.81 283.015 346.206C273.629 332.242 267.258 314.131 263.698 297.741C255.303 259.091 263.025 220.876 284.239 187.785C265.244 205.251 249.517 218.202 235.898 240.833C231.55 248.059 227.829 255.882 224.716 263.715C223.588 266.552 221.797 274.794 219.83 276.751C219.596 276.641 219.343 276.564 219.128 276.42C217.429 275.284 215.147 270.366 213.86 268.516C199.434 247.774 192.214 226.251 190.876 200.991C188.208 205.564 184.566 209.831 181.573 214.24C177.469 220.286 173.908 226.684 170.303 233.034C166.504 211.02 164.062 188.681 167.872 166.471C172.678 138.456 186.529 112.761 210.023 96.1845C232.575 80.2724 257.177 76.5834 283.957 81.2772C285.577 75.1798 287.669 69.3544 290.872 63.8929C299.367 49.4086 312.396 40.7657 328.402 36.5808ZM768.179 252.196C726.301 256.483 688.344 275.149 661.496 308.07C647.051 325.784 639.223 345.816 633.826 367.73C635.532 368.947 637.804 370.197 638.869 372.026L638.886 374.692C639.76 374.855 639.57 374.937 640.271 374.744C646.214 373.106 652.105 370.899 658 369.066L698.092 356.696C725.662 348.202 753.504 340.265 780.934 331.352C786.621 334.509 792.039 337.763 795.489 343.502C795.105 356.971 790.771 370.059 787.704 383.105Q780.002 416.627 771.275 449.897C768.884 459.078 765.185 468.882 764.109 478.285C768.125 484.591 768.008 489.549 766.903 496.828C764.901 498.75 762.987 500.114 760.482 501.296C749.363 506.543 737.015 510.41 725.522 514.863C693.951 527.095 662.086 538.485 630.646 551.07C645.141 566.113 658.97 580.962 670.753 598.29C677.259 599.219 688.758 600.586 693.003 606.302C694.428 608.219 694.973 610.363 694.571 612.714C694.326 614.142 693.902 615.573 693.528 616.972L700.885 630.523Q704.938 631.096 709.025 631.335Q713.111 631.575 717.204 631.479Q721.296 631.383 725.367 630.953Q729.438 630.523 733.46 629.762C738.582 628.773 744.314 626.895 749.535 627.025C751.093 627.064 752.568 627.606 753.56 628.867C754.567 630.148 754.651 631.676 754.339 633.209C752.346 642.985 709.309 693.477 699.204 699.989C698.351 700.539 697.331 701.113 696.283 700.878C690.104 699.495 674.65 678.908 671.349 673.17C667.201 672.865 661.058 672.871 658.043 669.497C655.896 667.096 657.905 661.072 655.252 660.447C653.762 660.096 651.744 660.249 650.191 660.191C646.662 657.802 644.076 655.624 641.722 652.009C641.804 645.461 643.06 639.947 645.495 633.881C623.95 616.555 602.579 602.209 577.505 590.506C600.831 610.437 617.118 640.417 628.486 668.56C634.179 668.563 641.033 668.27 645.474 672.495C651.297 678.034 649.59 686.983 651.117 694.089C651.794 697.243 653.543 700.637 653.601 703.856C653.631 705.54 653.171 707.24 652.682 708.838C658.475 710.264 664.382 712.711 670.346 713.103C678.491 713.637 687.116 712.803 695.235 712.067C699.007 711.725 702.97 711.1 706.755 711.21C708.441 711.26 710.462 711.264 711.834 712.374C712.003 712.51 712.138 712.684 712.29 712.839C713.15 714.571 713.035 715.983 712.407 717.755C707.194 732.454 680.545 752.489 668.13 762.999C662.97 767.367 657.63 773.33 651.462 776.218C649.496 777.138 647.797 777.548 645.638 777.408C639.624 774.83 631.498 752.174 628.954 745.817Q625.795 737.899 622.732 729.943C619.182 730.478 614.786 731.429 611.671 729.103C608.503 726.736 607.832 722.021 606.963 718.425C602.048 715.134 594.708 711.373 593.372 705.168C592.664 701.878 593.898 699.003 595.289 696.08C580.356 675.751 558.35 644.779 535.359 633.911C522.928 637.245 510.949 643.483 499.174 648.593C463.401 664.118 426.843 674.651 390.418 654.375C388.111 657.711 385.673 660.941 383.231 664.179C390.126 666.344 396.593 668.506 402.261 673.113L402.478 673.628C401.819 674.357 402.204 674.207 401.323 674.249C389.917 674.783 378.049 670.853 366.6 670.046C355.735 669.279 345.473 670.418 334.935 673.158C307.934 680.178 290.644 695.777 270.982 714.193C277.277 699.579 286.839 689.627 298.913 679.562C293.231 675.025 287.62 670.466 281.381 666.699C263.964 656.184 242.244 650.883 221.965 653.109Q220.694 653.256 219.427 653.434Q218.161 653.612 216.899 653.821Q215.637 654.031 214.381 654.272Q213.124 654.512 211.874 654.784Q210.624 655.056 209.382 655.359Q208.139 655.662 206.904 655.996Q205.669 656.33 204.443 656.694Q203.217 657.058 202 657.453Q200.783 657.848 199.576 658.273Q198.37 658.697 197.174 659.152Q195.978 659.607 194.794 660.091Q193.61 660.575 192.439 661.089Q191.267 661.602 190.109 662.145Q188.95 662.687 187.806 663.258Q186.661 663.829 185.531 664.429Q184.401 665.028 183.286 665.655Q182.171 666.283 181.072 666.938Q179.973 667.592 178.891 668.274Q177.809 668.956 176.744 669.665Q175.679 670.373 174.632 671.108Q173.584 671.843 172.556 672.603Q171.527 673.364 170.518 674.15Q169.509 674.936 168.519 675.747Q167.53 676.557 166.561 677.392Q165.592 678.228 164.644 679.087Q163.696 679.945 162.77 680.828Q161.844 681.71 160.939 682.615Q160.035 683.52 159.154 684.447Q158.273 685.374 157.415 686.323Q156.557 687.272 155.723 688.242Q154.889 689.211 154.079 690.202Q153.269 691.192 152.484 692.202C148.453 697.315 144.939 702.845 140.63 707.732C146.284 685.601 160.713 667.883 180.239 656.247Q186.325 652.627 192.867 649.917C162.132 639.999 134.095 643.474 105.391 658.062C75.709 673.148 52.6844 702.005 42.5371 733.498Q42.0286 735.104 41.5592 736.722Q41.0899 738.34 40.6599 739.969Q40.2299 741.598 39.8395 743.237Q39.4492 744.876 39.0987 746.523Q38.7482 748.171 38.4378 749.827Q38.1274 751.483 37.8573 753.146Q37.5872 754.809 37.3575 756.478Q37.1277 758.147 36.9386 759.821Q36.7494 761.495 36.6009 763.173Q36.4524 764.851 36.3447 766.532Q36.2369 768.214 36.17 769.897Q36.103 771.58 36.077 773.265Q36.0509 774.949 36.0657 776.634Q36.0805 778.319 36.1361 780.002Q36.1918 781.686 36.2883 783.368Q36.3847 785.05 36.522 786.729Q36.6593 788.408 36.8372 790.083Q37.0152 791.759 37.2337 793.429Q37.4522 795.1 37.7112 796.764Q37.9702 798.429 38.2695 800.087Q38.5688 801.745 38.9082 803.395Q39.2477 805.045 39.627 806.687Q40.0064 808.328 40.4255 809.96Q40.8445 811.592 41.3031 813.213Q41.7616 814.834 42.2593 816.443Q42.757 818.053 43.2936 819.65Q43.8302 821.247 44.4054 822.83Q44.9806 824.414 45.5941 825.983Q46.2075 827.552 46.8588 829.106Q47.5102 830.659 48.199 832.197Q48.8878 833.734 49.6137 835.254Q50.3396 836.775 51.1022 838.277C62.0538 859.594 78.3889 877.116 98.295 890.333C130.864 910.402 169.653 918.949 207.29 909.917C215.826 907.868 224.998 905.121 232.822 901.079C229.55 870.977 236.411 838.836 255.61 815.042C271.476 795.378 295.277 781.501 320.557 778.984C344.187 776.631 368.388 783.276 386.78 798.459C395.577 805.72 401.743 814.331 406.922 824.414C389.539 804.719 363.575 789.925 337.02 788.163Q335.95 788.093 334.879 788.05Q333.808 788.007 332.737 787.991Q331.665 787.974 330.593 787.984Q329.521 787.994 328.45 788.031Q327.379 788.067 326.309 788.13Q325.239 788.193 324.171 788.282Q323.103 788.372 322.037 788.488Q320.972 788.603 319.909 788.745Q318.847 788.888 317.788 789.056Q316.73 789.224 315.676 789.419Q314.622 789.613 313.573 789.834Q312.524 790.054 311.481 790.301Q310.437 790.547 309.401 790.819Q308.364 791.091 307.334 791.389Q306.305 791.686 305.283 792.009Q304.261 792.332 303.247 792.68Q302.233 793.029 301.228 793.402Q300.224 793.775 299.228 794.173Q298.233 794.571 297.248 794.993Q296.263 795.415 295.288 795.862Q294.314 796.309 293.351 796.779Q292.388 797.25 291.437 797.744Q290.486 798.238 289.547 798.756Q288.609 799.274 287.683 799.814Q286.758 800.355 285.846 800.919Q284.934 801.482 284.037 802.068Q283.139 802.654 282.256 803.261Q281.373 803.869 280.506 804.499Q279.638 805.128 278.786 805.779Q277.935 806.43 277.099 807.101Q276.264 807.773 275.446 808.465Q274.627 809.157 273.826 809.869Q272.961 810.642 272.115 811.436Q271.27 812.23 270.444 813.045Q269.618 813.86 268.812 814.694Q268.006 815.529 267.221 816.383Q266.436 817.237 265.673 818.11Q264.909 818.983 264.167 819.875Q263.424 820.766 262.704 821.676Q261.984 822.585 261.286 823.512Q260.589 824.439 259.914 825.383Q259.239 826.327 258.588 827.287Q257.937 828.246 257.309 829.222Q256.681 830.198 256.078 831.189Q255.474 832.179 254.895 833.184Q254.316 834.19 253.762 835.209Q253.207 836.228 252.678 837.26Q252.149 838.293 251.646 839.338Q251.142 840.383 250.664 841.44Q250.186 842.497 249.734 843.565Q249.283 844.634 248.857 845.713Q248.432 846.792 248.033 847.882Q247.634 848.971 247.262 850.07Q246.889 851.169 246.544 852.276Q246.199 853.384 245.882 854.499Q245.564 855.615 245.273 856.738Q244.983 857.861 244.72 858.991Q244.458 860.121 244.223 861.257Q243.988 862.393 243.781 863.535Q243.574 864.676 243.395 865.823Q243.216 866.969 243.065 868.119Q242.914 869.269 242.791 870.423Q242.669 871.576 242.574 872.732Q242.48 873.889 242.414 875.047C241.007 901.151 248.259 926.86 265.941 946.53C282.749 965.228 307.977 977.617 333.166 978.725C356.973 979.773 381.945 969.879 399.294 953.74C414.037 940.025 421.936 924.649 424.636 904.758C425.268 900.099 425.206 882.875 426.547 879.968C427.171 878.617 427.288 878.731 428.65 878.593C430.509 879.577 431.166 881.342 431.786 883.259C434.975 893.107 434.242 904.482 433.13 914.606C466.296 911.728 492.931 903.456 515.017 877.072C536.289 851.66 539.931 820.502 538.058 788.59C546.589 810.181 545.275 831.545 539.658 853.706C580.413 869.277 617.873 872.482 658.633 854.28Q660.006 853.681 661.364 853.048Q662.721 852.415 664.063 851.749Q665.405 851.083 666.73 850.384Q668.055 849.684 669.362 848.953Q670.669 848.221 671.958 847.458Q673.247 846.694 674.516 845.899Q675.786 845.104 677.036 844.278Q678.285 843.451 679.514 842.595Q680.743 841.738 681.95 840.851Q683.157 839.964 684.342 839.048Q685.527 838.131 686.689 837.186Q687.852 836.241 688.99 835.267Q690.128 834.293 691.242 833.292Q692.356 832.29 693.445 831.262Q694.534 830.233 695.598 829.178Q696.661 828.123 697.698 827.041Q698.735 825.96 699.745 824.854Q700.755 823.747 701.737 822.617Q702.719 821.486 703.674 820.331Q704.628 819.176 705.553 817.998Q706.478 816.82 707.374 815.619Q708.271 814.419 709.137 813.196Q710.003 811.974 710.838 810.731Q711.674 809.488 712.479 808.224Q713.284 806.961 714.057 805.678Q714.831 804.395 715.572 803.093Q716.313 801.792 717.023 800.472Q717.732 799.153 718.408 797.816Q719.085 796.479 719.728 795.126Q720.371 793.773 720.981 792.405Q721.59 791.037 722.166 789.654Q722.742 788.271 723.283 786.874C725.335 781.458 727.204 775.748 728.038 770.002C728.679 765.589 728.691 760.616 729.984 756.368C730.498 754.68 731.045 753.641 732.574 752.646C733.717 752.498 734.415 752.322 735.451 753.028C737.271 754.269 737.375 757.341 737.427 759.313C737.496 761.987 737.122 764.764 736.886 767.429C781.086 771.772 825.771 760.687 860.468 732.192C888.532 709.144 905.296 676.428 908.723 640.345C911.643 609.592 903.814 578.415 883.951 554.337C873.079 541.159 858.901 530.455 842.261 525.913C862.003 526.13 875.487 532.038 889.428 546.278C909.66 566.945 916.683 593.111 919.916 620.98C951.692 603.333 975.586 576.881 985.66 541.377Q986.019 540.141 986.347 538.898Q986.675 537.654 986.972 536.402Q987.269 535.15 987.536 533.891Q987.802 532.633 988.037 531.368Q988.272 530.103 988.476 528.833Q988.679 527.562 988.852 526.288Q989.024 525.013 989.165 523.734Q989.306 522.455 989.415 521.173Q989.524 519.891 989.602 518.607Q989.679 517.323 989.725 516.037Q989.771 514.752 989.785 513.465Q989.799 512.179 989.781 510.892Q989.764 509.606 989.714 508.32Q989.665 507.035 989.583 505.751Q989.502 504.467 989.389 503.185Q989.276 501.904 989.132 500.625Q988.987 499.347 988.812 498.072Q988.635 496.798 988.428 495.528Q988.221 494.259 987.982 492.994Q987.743 491.73 987.474 490.472Q987.204 489.214 986.903 487.964Q986.602 486.713 986.271 485.47Q985.939 484.227 985.577 482.992Q985.215 481.758 984.822 480.532Q984.43 479.307 984.007 478.092Q983.584 476.877 983.132 475.673Q982.679 474.468 982.197 473.276Q981.715 472.083 981.203 470.902Q980.692 469.722 980.152 468.554Q979.611 467.387 979.042 466.233Q978.473 465.079 977.876 463.94Q977.278 462.8 976.653 461.676C964.074 439.246 940.844 422.138 916.219 415.239C888.488 407.471 864.193 413.075 838.606 424.469C857.752 407.938 877.828 401.163 903.283 403.109Q910.955 403.636 918.454 405.337C919.867 361.435 913.87 331.178 882.774 297.991Q881.524 296.666 880.242 295.373Q878.96 294.08 877.647 292.819Q876.333 291.559 874.988 290.331Q873.644 289.103 872.269 287.909Q870.894 286.714 869.49 285.555Q868.087 284.395 866.654 283.271Q865.222 282.146 863.762 281.057Q862.303 279.969 860.817 278.917Q859.33 277.865 857.818 276.85Q856.307 275.835 854.77 274.858Q853.233 273.881 851.673 272.942Q850.113 272.004 848.53 271.104Q846.946 270.204 845.341 269.344Q843.736 268.484 842.111 267.664Q840.485 266.844 838.839 266.065Q837.193 265.286 835.529 264.547Q833.864 263.809 832.182 263.112Q830.5 262.415 828.801 261.761Q827.102 261.106 825.387 260.493Q823.672 259.881 821.943 259.311Q820.213 258.741 818.47 258.215Q816.727 257.688 814.971 257.205Q813.216 256.721 811.448 256.282Q809.681 255.842 807.904 255.447Q806.127 255.051 804.34 254.7Q802.553 254.349 800.758 254.042Q798.963 253.735 797.161 253.473Q795.36 253.21 793.552 252.993Q791.744 252.775 789.931 252.603Q788.118 252.43 786.302 252.303Q784.486 252.175 782.667 252.093Q780.847 252.01 779.027 251.973C775.431 251.864 771.762 251.821 768.179 252.196ZM288.275 355.025C251.284 366.268 224.061 388.71 205.821 422.862C193.081 446.717 188.263 472.777 188.584 499.611C212.792 503.657 234.517 514.661 248.943 535.001C251.927 539.209 254.282 543.628 256.265 548.38C239.271 527.249 215.362 511.672 187.906 508.712C161.233 505.836 133.078 517.5 112.643 534.066Q111.457 535.026 110.294 536.015Q109.132 537.004 107.994 538.021Q106.856 539.038 105.743 540.083Q104.631 541.127 103.544 542.198Q102.457 543.27 101.396 544.367Q100.336 545.464 99.3022 546.588Q98.2687 547.711 97.263 548.858Q96.2572 550.006 95.2798 551.178Q94.3024 552.35 93.3538 553.546Q92.4053 554.742 91.4861 555.96Q90.567 557.178 89.6779 558.419Q88.7888 559.659 87.9302 560.921Q87.0716 562.183 86.244 563.465Q85.4165 564.747 84.6204 566.049Q83.8244 567.351 83.0603 568.673Q82.2963 569.994 81.5647 571.333Q80.8331 572.672 80.1344 574.029Q79.4357 575.386 78.7703 576.76Q78.1049 578.133 77.4732 579.522Q76.8415 580.912 76.2439 582.316Q75.6463 583.72 75.0831 585.139Q74.5199 586.557 73.9915 587.989Q73.4631 589.421 72.9697 590.865Q72.4764 592.309 72.0184 593.765Q71.5605 595.221 71.1382 596.687Q70.7158 598.154 70.3294 599.63Q69.943 601.107 69.5927 602.592Q69.2424 604.078 68.9285 605.571Q68.6145 607.065 68.3371 608.565Q68.0596 610.066 67.8189 611.573Q67.5782 613.08 67.3743 614.593Q67.1703 616.105 67.0034 617.622C65.245 634.9 67.7703 652.964 73.2385 669.422C83.4741 659.352 95.2529 651.563 108.367 645.729C135.068 634.732 166.445 629.903 193.835 641.46C197.386 642.958 200.766 644.788 204.149 646.627C234.355 640.476 263.309 643.497 289.488 660.707C295.523 664.675 301.433 669.177 306.117 674.717C323.869 664.517 349.617 659.399 370.218 660.788C366.608 655.058 362.863 649.311 360.158 643.084C348.314 642.439 336.711 640.075 328.4 630.919C311.789 612.618 314.21 576.037 315.495 552.875C317.48 517.086 329.518 462.307 351.12 433.38C348.044 430.732 346.444 427.701 346.104 423.619C345.373 414.828 350.269 406.138 354.605 398.877Q351.615 398.024 348.672 397.023Q345.729 396.023 342.839 394.876Q339.949 393.73 337.12 392.442Q334.291 391.153 331.529 389.725Q328.768 388.297 326.081 386.733Q323.394 385.169 320.789 383.474Q318.183 381.778 315.665 379.955Q313.147 378.132 310.723 376.185C305.868 372.278 301.257 368.188 297.173 363.472C295.285 361.292 291.909 356.338 289.436 355.132C289.087 354.962 288.662 355.061 288.275 355.025ZM572.577 364.207C563.994 364.72 555.651 365.346 547.473 368.244C539.116 371.206 531.361 375.45 522.844 378.038C508.7 382.336 493.574 384.271 478.928 385.945C480.624 392.237 481.893 397.857 478.433 403.894C477.177 406.086 475.445 408.137 473.771 410.012C474.441 414.595 475.125 418.744 476.948 423.021C479.342 428.638 482.943 433.837 486.282 438.93C496.245 454.13 507.184 469.689 521.892 480.661C523.604 481.938 525.35 483.078 527.208 484.129C537.312 483.992 544.682 480.718 553.476 476.044C563.149 470.786 577.417 463.052 588.737 466.261C594.287 467.834 598.354 471.925 601.004 476.927C603.619 481.864 604.677 487.079 605.246 492.585C609.267 483.857 610.405 473.754 612.454 464.406Q618.252 438.246 624.758 412.253C627.747 400.064 629.48 387.235 635.393 376.04C614.898 368.028 594.838 362.77 572.577 364.207ZM534.099 569.219C521.88 570.527 509.773 571.932 497.881 575.158C460.345 585.342 425.28 610.069 400.938 640.158C398.846 642.744 396.707 645.365 394.838 648.116C449.844 668.025 470.274 649.191 518.877 629.813C526.144 626.95 533.419 623.101 541.235 626.402C562.319 635.305 585.37 670.983 600.887 688.229C606.751 680.569 612.361 674.859 621.226 670.834C606.663 638.893 588.005 610.467 562.465 586.142C556.353 580.321 549.744 573.826 541.778 570.688C539.261 569.696 536.779 569.351 534.099 569.219ZM621.023 554.49C615.705 556.698 610.473 558.725 604.786 559.752C597.502 561.068 589.77 560.729 582.38 560.944Q562.538 561.486 542.702 562.229C547.11 564.63 551.332 567.108 555.42 570.039C558.97 572.585 562.528 575.768 566.405 577.758C571.241 580.239 576.739 580.989 581.74 583.058C592.99 587.712 604.063 594.036 614.236 600.695C626.24 608.882 638.238 617.308 649.189 626.885C653.593 617.728 657.578 609.687 665.736 603.3C659.438 595.426 628.271 555.965 621.023 554.49ZM700.972 718.21C694.993 718.721 688.973 719.366 682.975 719.548C674.61 735.741 658.418 751.391 642.981 760.923C644.644 764.548 646.26 768.198 648.202 771.685C666.754 754.287 691.044 738.529 705.837 717.856L700.972 718.21ZM742.526 634.694C737.444 635.279 732.2 635.741 727.287 637.224C726.631 639.02 725.988 640.926 725.012 642.575C722.096 647.506 718.239 652.146 714.959 656.857C707.32 667.828 699.891 679.339 691.031 689.369C692.941 691.559 694.799 693.788 696.945 695.754C702.957 690.028 708.236 683.235 713.643 676.93C725.506 663.097 737.246 649.035 747.986 634.307C746.198 634.429 744.29 634.42 742.526 634.694ZM670.081 718.759C668.965 721.413 667.794 723.891 666.343 726.38C669.217 726.766 672.008 727.083 674.91 727.153L679.376 719.618C676.282 719.339 673.164 719.128 670.081 718.759ZM718.267 637.394C717.809 639.261 716.888 641.637 717.394 643.526C718.648 643.92 718.854 643.607 719.994 642.974C720.29 642.809 720.571 642.618 720.86 642.44C721.788 641.178 722.769 640.137 722.85 638.506C721.897 637.485 721.047 637.44 719.681 637.398C719.21 637.383 718.738 637.392 718.267 637.394Z"/>
	<path fill="#F5FAF2" transform="matrix(1.2002 0 0 1.2002 -3.05176e-05 0)" d="M694.315 644.096C695.738 644.011 697.893 643.664 699.267 644.091C700.788 644.564 701.16 645.66 701.898 646.908C700.466 647.04 698.369 647.43 696.972 647.015C695.426 646.556 695.051 645.365 694.315 644.096Z"/>
	<path fill="#A8DADD" transform="matrix(1.2002 0 0 1.2002 -3.05176e-05 0)" d="M472.377 559.174C475.116 559.533 477.889 560.06 480.137 561.75L480.178 562.675C478.503 563.487 476.971 564.259 475.101 563.725C473.624 562.566 473.09 560.849 472.377 559.174Z"/>
	<path fill="#F5FAF2" transform="matrix(1.2002 0 0 1.2002 -3.05176e-05 0)" d="M650.791 715.509C651.38 715.563 652.093 715.583 652.674 715.728C654.019 716.064 654.167 716.105 654.828 717.237C654.529 719.06 653.033 720.597 651.939 722.037C651.39 722.359 650.905 722.424 650.288 722.554C649.384 721.857 649.569 722.244 649.332 721.253C648.816 719.095 649.665 717.29 650.791 715.509Z"/>
	<path fill="#F5FAF2" transform="matrix(1.2002 0 0 1.2002 -3.05176e-05 0)" d="M696.932 636.399C697.68 636.449 698.516 636.471 699.237 636.678C700.499 637.039 701.028 637.582 701.666 638.669C701.34 640.346 700.957 640.633 699.853 641.878C698.836 641.797 697.727 641.765 696.736 641.523C695.484 641.217 695.113 640.69 694.575 639.6C694.812 638.073 695.847 637.375 696.932 636.399Z"/>
	<path fill="#457B9D" transform="matrix(1.2002 0 0 1.2002 -3.05176e-05 0)" d="M579.601 508.579C580.993 509.512 581.906 511.656 582.745 513.09Q577.97 514.024 573.172 514.832C572.295 514.951 571.764 514.933 570.903 514.833L570.99 514.082C573.487 511.867 576.719 510.265 579.601 508.579Z"/>
	<path fill="#F5FAF2" transform="matrix(1.2002 0 0 1.2002 -3.05176e-05 0)" d="M658.645 716.868C660.095 716.995 661.111 717.199 662.139 718.225L662.112 719.439C660.876 721.746 658.873 723.388 656.988 725.164C655.928 725.114 655.156 724.974 654.159 724.61L653.725 723.567C654.508 721.011 656.908 718.86 658.645 716.868Z"/>
	<path fill="#F5FAF2" transform="matrix(1.2002 0 0 1.2002 -3.05176e-05 0)" d="M705.482 636.329C705.961 636.368 706.842 636.422 707.284 636.544C708.39 636.847 708.939 637.401 709.341 638.457C710.188 640.676 709.243 644.44 708.386 646.582C706.9 646.464 705.615 646.481 704.649 645.183C703.03 643.007 704.812 638.64 705.482 636.329Z"/>
	<path fill="#F5FAF2" transform="matrix(1.2002 0 0 1.2002 -3.05176e-05 0)" d="M282.891 170.016C284.082 169.846 285.114 169.826 286.313 169.908C287.295 170.649 287.66 170.988 287.912 172.294C288.291 174.254 286.597 177.405 285.407 178.852C283.731 178.602 281.674 178.485 280.433 177.168C279.873 176.575 279.526 175.855 279.547 175.045C279.606 172.7 281.283 171.465 282.891 170.016Z"/>
	<path fill="#F5FAF2" transform="matrix(1.2002 0 0 1.2002 -3.05176e-05 0)" d="M300.24 142.045C301.376 142.364 302.581 142.649 303.673 143.097C304.87 143.588 305.231 144.078 305.715 145.227C304.911 147.855 301.396 150.419 299.414 152.358L296.28 156.147C296.971 151.015 297.427 146.561 300.24 142.045Z"/>
	<path fill="#F5FAF2" transform="matrix(1.2002 0 0 1.2002 -3.05176e-05 0)" d="M317.396 129.025C318.849 128.96 320.828 128.954 322.051 129.855C322.672 130.312 322.488 130.75 322.54 131.451C320.69 135.133 315.577 137.872 312.219 140.189L308.37 143.104C309.273 139.043 310.45 135.32 312.36 131.621L317.396 129.025Z"/>
	<path fill="#F5FAF2" transform="matrix(1.2002 0 0 1.2002 -3.05176e-05 0)" d="M282.298 154.334C287.01 154.545 290.839 156.673 294.797 159.013L291.176 164.275C290.762 164.731 290.249 165.04 289.748 165.394C288.637 165.428 287.744 165.428 286.693 165.019C284.321 164.096 282.341 161.921 281.461 159.546C280.706 157.506 281.378 156.136 282.298 154.334Z"/>
	<path fill="#A8DADD" transform="matrix(1.2002 0 0 1.2002 -3.05176e-05 0)" d="M449.413 421.359C449.445 421.39 449.484 421.414 449.508 421.451C451.593 424.645 447.919 440.146 447.184 444.194L439.528 434.676C437.415 431.85 434.438 428.615 433.24 425.3L433.765 424.715C436.544 425.326 438.733 427.053 441.132 428.526C444.636 426.687 446.905 424.33 449.413 421.359Z"/>
	<path fill="#A8DADD" transform="matrix(1.2002 0 0 1.2002 -3.05176e-05 0)" d="M452.846 437.761C454.711 439.468 455.714 441.596 456.885 443.792C455.895 450.06 453.515 455.465 450.672 461.094L439.493 452.429C437.698 448.718 438.015 443.409 437.869 439.317C440.816 443.39 444.02 446.945 447.739 450.327C451.128 446.562 451.99 442.593 452.846 437.761Z"/>
	<path fill="#F5FAF2" transform="matrix(1.2002 0 0 1.2002 -3.05176e-05 0)" d="M487.154 547.941C493.652 546.329 500.073 545.129 506.754 544.599C520.88 543.478 535.245 543.846 549.418 543.502C560.051 543.245 570.59 542.303 581.202 541.749C584.46 541.579 594.127 540.117 596.682 541.731C597.31 542.128 597.143 543.077 597.214 543.754C587.796 544.712 578.071 543.502 568.762 545.436C541.565 545.533 514.35 547.398 487.154 547.941Z"/>
	<path fill="#457B9D" transform="matrix(1.2002 0 0 1.2002 -3.05176e-05 0)" d="M440.493 383.308C451.598 384.677 461.618 386.491 472.919 386.976C474.039 393.806 472.597 398.051 469.453 404.017L466.708 408.483C461.814 403.268 456.779 397.031 450.947 392.88C448.481 391.125 445.638 389.921 443.126 388.209C440.976 386.744 440.958 385.736 440.493 383.308Z"/>
	<path fill="#457B9D" transform="matrix(1.2002 0 0 1.2002 -3.05176e-05 0)" d="M440.289 391.106C451.111 396.218 460.365 408.602 466.548 418.46C465.904 425.257 464.787 430.76 461.974 437.014L461.657 437.485C460.439 437.733 455.134 433.045 453.187 432.151C454.506 425.529 455.549 418.457 452.934 411.992C450.259 405.376 444.928 402.203 438.688 399.566L440.289 391.106Z"/>
	<path fill="#E5A8A7" transform="matrix(1.2002 0 0 1.2002 -3.05176e-05 0)" d="M562.727 275.786C565.199 278.375 566.49 282.669 567.785 285.986C574.989 304.438 583.056 314.432 594.675 329.788L588.618 328.612L577.14 327.333C575.847 314.237 571.896 310.407 563.265 301.534C561.076 299.284 559.018 296.951 557.71 294.056C556.651 291.713 555.815 288.369 556.726 285.874C557.457 285.58 558.142 285.351 558.909 285.151C559.169 285.084 559.43 285.022 559.691 284.957C561.878 282.366 562.194 279.019 562.727 275.786Z"/>
	<path fill="#457B9D" transform="matrix(1.2002 0 0 1.2002 -3.05176e-05 0)" d="M599.223 514.123L600.488 514.15L601.156 515.198C601.364 517.574 600.676 519.855 600.152 522.158C594.09 524.032 577.215 526.067 573.508 529.012L573.651 529.503C581.017 531.567 591.511 528.915 598.762 527.181C598.415 529.772 597.919 532.364 597.494 534.944C592.69 535.639 587.723 535.761 582.877 536.092C574.697 536.652 563.159 538.377 555.296 537.058C554.564 534.799 563.081 528.423 564.663 526.668C566.103 525.071 567.004 522.633 567.893 520.685C578.471 519.348 588.778 516.224 599.223 514.123Z"/>
	<path fill="#E5A8A7" transform="matrix(1.2002 0 0 1.2002 -3.05176e-05 0)" d="M383.135 351.477C386.93 352.486 396.817 360.358 400.556 363.003Q403.504 369.531 406.59 375.996C398.702 374.638 391.048 373.017 383.375 370.717C372.625 367.166 362.214 362.733 352.961 356.129C363.92 357.488 372.974 355.438 383.135 351.477Z"/>
	<path fill="#E5A8A7" transform="matrix(1.2002 0 0 1.2002 -3.05176e-05 0)" d="M642.324 691.198C643.026 691.208 643.693 691.493 644.361 691.696C647.368 694.589 648.111 699.786 649.134 703.711C642.511 706.803 633.847 708.71 628.683 714.158C625.201 717.832 622.679 721.908 618.833 725.324C618.032 725.46 616.957 725.446 616.295 724.924C614.179 723.253 612.515 719.388 612.202 716.722C611.725 712.665 613.561 708.902 615.991 705.778Q616.59 705.02 617.225 704.292Q617.86 703.565 618.531 702.87Q619.202 702.174 619.906 701.513Q620.611 700.852 621.347 700.227Q622.083 699.602 622.849 699.014Q623.616 698.426 624.41 697.876Q625.205 697.327 626.026 696.818Q626.847 696.308 627.692 695.841Q628.537 695.373 629.404 694.947Q630.271 694.522 631.159 694.14Q632.046 693.758 632.951 693.421Q633.856 693.083 634.777 692.791Q635.698 692.499 636.632 692.253Q637.566 692.007 638.511 691.807Q639.456 691.608 640.41 691.455Q641.364 691.303 642.324 691.198Z"/>
	<path fill="#457B9D" transform="matrix(1.2002 0 0 1.2002 -3.05176e-05 0)" d="M526.551 256.978L527.051 256.622L530.098 257.581C532.885 258.477 534.301 260.732 535.535 263.276C539.972 272.419 541.456 290.471 538.12 300.022C536.773 303.877 534.626 305.207 530.974 306.867C530.509 307.078 530.035 307.27 529.558 307.451C522.282 295.532 520.245 281.602 523.554 267.997C524.15 265.543 526.965 259.109 526.551 256.978Z"/>
	<path fill="#A8DADD" transform="matrix(1.2002 0 0 1.2002 -3.05176e-05 0)" d="M631.564 675.135C636.818 674.89 639.25 675.738 643.18 679.305C644.175 682.218 644.785 685.262 645.486 688.257C641.544 688.399 637.72 688.569 633.884 689.555C623.751 692.158 616.152 699.459 610.954 708.274C610.784 708.635 610.588 709.09 610.348 709.403C609.672 710.282 609.009 710.843 607.844 710.752C604.697 710.506 601.588 706.907 599.405 704.882C600.955 700.865 602.973 696.898 605.274 693.26C611.775 682.982 619.794 677.791 631.564 675.135Z"/>
	<path fill="#E5A8A7" transform="matrix(1.2002 0 0 1.2002 -3.05176e-05 0)" d="M686.552 618.501C690.401 621.657 692.489 626.235 694.583 630.622C690.844 634.858 687.872 639.677 684.555 644.237C679.202 651.597 673.612 658.361 669.404 666.488C669.275 666.506 669.147 666.534 669.018 666.542C666.529 666.695 663.662 666.714 661.706 664.981C660.815 662.88 661.071 660.979 661.431 658.778C664.202 641.823 672.643 628.575 686.552 618.501Z"/>
	<path fill="#457B9D" transform="matrix(1.2002 0 0 1.2002 -3.05176e-05 0)" d="M568.762 545.436C578.071 543.502 587.796 544.712 597.214 543.754C595.781 547.454 596.987 551.375 597.75 555.114Q564.375 554.625 531.045 556.43C517.668 557.115 504.05 558.976 490.666 558.598C487.71 558.515 483.218 558.417 481.046 556.165C480.489 555.587 480.537 554.974 480.396 554.218C480.953 553.301 481.194 553.303 482.203 553.032C489.918 550.961 511.634 552.574 521.27 552.146C534.155 551.574 547.043 551.053 559.875 549.683C567.75 548.842 575.575 547.467 583.42 546.372C578.574 545.992 573.623 545.357 568.762 545.436Z"/>
	<path fill="#A8DADD" transform="matrix(1.2002 0 0 1.2002 -3.05176e-05 0)" d="M674.276 605.493C678.629 606.196 684.585 606.798 687.721 610.19C688.344 612.335 687.588 613.122 686.033 614.585C683.15 617.298 679.554 619.28 676.558 621.888C667.917 629.41 662.434 641.62 659.236 652.362C659.001 653.279 658.895 653.478 658.345 654.188C656.416 654.707 653.902 654.855 652.004 654.116C650.405 653.493 649.246 652.358 648.617 650.762C647.101 646.915 649.115 641.725 650.563 638.086C654.96 627.042 662.919 610.415 674.276 605.493Z"/>
	<path fill="#457B9D" transform="matrix(1.2002 0 0 1.2002 -3.05176e-05 0)" d="M717.957 647.157L718.384 647.549C717.92 647.952 717.456 648.393 716.968 648.767C711.086 653.286 705.841 663.805 701.43 670.09Q695.495 678.599 688.833 686.552C686.651 684.349 684.659 682.063 682.689 679.67C679.897 676.368 677.154 673 677.104 668.45C677.018 660.73 685.877 653.06 690.796 647.815C691.318 648.27 691.829 648.719 692.395 649.119C698.769 653.622 710.404 648.505 717.402 647.252L717.957 647.157Z"/>
	<path fill="#457B9D" transform="matrix(1.2002 0 0 1.2002 -3.05176e-05 0)" d="M646.964 713.628C647.504 714.021 647.226 713.724 647.488 714.731C646.231 717.043 644.803 719.223 645.558 721.966C646.471 725.279 650.55 727.259 653.268 728.933C659.366 728.969 665.568 729.635 671.648 730.109C665.007 737.607 657.029 744.068 649.493 750.655C646.877 752.723 644.072 754.58 641.337 756.488C637.085 746.209 632.617 736.011 628.611 725.632C634.495 719.572 638.469 715.553 646.964 713.628Z"/>
	<path fill="#F5FAF2" transform="matrix(1.2002 0 0 1.2002 -3.05176e-05 0)" d="M582.235 473.062C585.201 472.872 587.741 473.479 590.258 475.067C594.104 477.494 595.989 481.972 597 486.236C599.383 496.291 596.165 504.431 590.934 512.805C592.355 506.649 593.336 499.799 592.04 493.538C590.841 487.743 587.944 484.08 583.095 480.946C586.858 486.685 589.375 493.349 589.266 500.304C589.229 502.667 589.126 506.147 587.31 507.889L586.321 507.686C583.691 504.555 582.869 499.246 580.632 495.575L580.29 495.024C575.809 491.351 571.521 489.908 565.722 490.493C563.714 490.695 561.182 491.482 559.887 493.112C560.479 496.231 569.861 496.712 572.207 499.895C572.99 500.957 573.245 501.837 572.968 503.136C572.336 506.106 568.865 508.248 566.574 509.913C563.243 499.695 555.52 493.895 546.601 488.672C557.03 481.69 570.125 476.03 582.235 473.062Z"/>
	<path fill="#457B9D" transform="matrix(1.2002 0 0 1.2002 -3.05176e-05 0)" d="M469.584 431.345C472.599 437.36 473.039 445.554 474.289 452.146C478.574 474.749 482.461 497.749 494.258 517.855L486.384 519.698C484.839 519.974 482.627 520.661 481.161 520.102C479.109 515.956 478.127 510.684 476.71 506.238C473.643 496.615 470.503 487.066 468.089 477.251C465.509 466.76 463.695 456.116 461.265 445.595C465.206 441.314 467.016 436.439 469.584 431.345Z"/>
	<path fill="#A8DADD" transform="matrix(1.2002 0 0 1.2002 -3.05176e-05 0)" d="M455.331 516.071C460.95 517.095 467.361 516.503 473.071 516.453C468.064 527.657 463.339 540.987 465.922 553.437C466.924 558.264 469.114 562.696 470.177 567.415L469.385 568Q460.406 569.449 451.336 570.121C446.647 553.178 446.771 531.805 455.331 516.071Z"/>
	<path fill="#F5FAF2" transform="matrix(1.2002 0 0 1.2002 -3.05176e-05 0)" d="M779.204 338.479C780.355 338.514 781.768 338.835 782.729 339.467L782.685 340.336C778.385 344.215 767.214 345.795 761.423 347.539L695.99 367.481C683.479 371.268 651.947 378.797 642.641 385.311C641.192 387.799 640.339 390.488 639.555 393.244C632.296 418.765 627.356 445.181 621.389 471.051Q617.033 489.776 612.962 508.565C610.879 517.904 608.242 527.287 607.596 536.855C606.613 536.935 605.719 536.898 604.737 536.845C604.138 536.314 603.723 536.134 603.501 535.322C603.169 534.108 603.255 533.031 603.532 531.816L628.74 423.679C631.232 413.139 634.527 391.696 639.022 382.934C653.029 374.843 677.001 369.994 692.95 365.237Q736.27 352.481 779.204 338.479Z"/>
	<path fill="#F5FAF2" transform="matrix(1.2002 0 0 1.2002 -3.05176e-05 0)" d="M457.313 457.354C459.486 459.577 460.196 468.015 460.814 471.181C463.576 485.321 467.746 498.911 472.551 512.476C464.983 512.496 457.617 511.004 450.31 509.175C446.621 507.939 443.018 506.444 439.403 505.006C440.319 489.143 440.358 474.272 439.408 458.37C441.846 460.43 444.644 463.26 447.487 464.66C448.877 465.345 450.39 465.713 451.883 465.078C454.857 463.812 456.083 460.081 457.313 457.354Z"/>
	<path fill="#457B9D" transform="matrix(1.2002 0 0 1.2002 -3.05176e-05 0)" d="M476.765 433.765C480.277 436.66 485.387 447.857 488.238 452.358C496.2 464.931 508.07 480.122 521.427 487.116C525.462 489.228 529.528 490.33 533.952 491.335C528.573 494.266 523.736 497.784 518.969 501.619Q510.369 508.794 501.46 515.582C485.671 492.298 482.539 460.744 476.765 433.765Z"/>
	<path fill="#457B9D" transform="matrix(1.2002 0 0 1.2002 -3.05176e-05 0)" d="M759.752 486.951L760.766 487.175C761.928 489.391 762.175 492.194 762.642 494.64C754.919 498.817 746.632 501.682 738.464 504.832L706.016 517.349C672.418 530.295 638.831 543.989 604.66 555.324L603.704 555.271C601.836 552.6 602.06 547.305 601.881 544.109C624.777 537.714 646.734 528.189 668.971 519.86Q714.209 502.985 759.752 486.951Z"/>
	<path fill="#A8DADD" transform="matrix(1.2002 0 0 1.2002 -3.05176e-05 0)" d="M525.197 562.212C527.597 561.922 531.781 561.61 534.069 562.24L533.102 562.569L533.671 562.099L533.413 563.105L532.701 562.828L533.229 562.877C526.759 563.482 520.173 564.096 513.747 565.047C469.374 571.619 427.813 598.297 398.433 631.475C391.042 639.821 385.03 648.719 378.459 657.671L377.547 657.674C372.837 652.006 369.798 645.026 366.866 638.325C391.881 614.68 415.884 590.347 449.177 578.585C456.926 575.848 464.945 574.629 472.818 572.415C478.345 570.86 483.464 567.979 488.992 566.406C500.635 563.093 513.185 562.966 525.197 562.212Z"/>
	<path fill="#457B9D" transform="matrix(1.2002 0 0 1.2002 -3.05176e-05 0)" d="M383.418 380.615C388.732 381.838 404.082 382.076 407.164 385.83C405.885 389.595 388.409 385.685 384.5 389.618L384.59 390.828C388.587 397.143 404.989 405.041 411.657 409.681C425.412 419.251 430.743 430.707 433.589 446.763L428.715 442.822C412.512 428.309 388.216 418.341 366.257 421.479C363.468 421.878 358.423 425.091 356.005 424.212C354.945 422.809 355.152 421.552 355.371 419.913C357.568 403.466 370.806 390.13 383.418 380.615Z"/>
	<path fill="#F5FAF2" transform="matrix(1.2002 0 0 1.2002 -3.05176e-05 0)" d="M338.654 284.105C344.583 283.638 349.66 285.703 354.978 288.023C356.165 293.749 357.674 299.429 358.975 305.134C353.694 300.67 347.255 296.565 340.255 295.677C337.053 295.27 333.597 295.706 331.087 297.897C327.911 300.668 326.882 305.799 326.725 309.857C326.655 311.665 326.946 313.316 328.216 314.665L329.01 314.632C331.175 312.369 331.743 307.599 333.193 304.672C334.121 302.797 335.586 300.708 337.787 300.276C343.27 299.201 353.769 308.288 358.099 311.41C354.926 310.877 351.49 310.063 348.355 311.175C346.04 311.995 344.583 313.747 343.584 315.929C341.814 319.794 341.359 324.432 342.957 328.431Q343.186 329.013 343.473 329.569Q343.76 330.125 344.103 330.648Q344.445 331.172 344.839 331.658Q345.234 332.144 345.675 332.587Q346.117 333.03 346.602 333.425Q347.086 333.821 347.609 334.165Q348.131 334.509 348.686 334.798Q349.241 335.086 349.823 335.317C351.064 335.823 351.829 336.209 353.084 335.706C352.682 333.438 349.098 330.018 347.563 328.188C346.266 326.258 345.062 322.993 345.674 320.643C346.146 318.83 347.245 317.548 348.917 316.749C352.982 314.805 357.088 316.035 361.06 317.479C364.674 322.302 367.239 328.124 370.194 333.378C372.802 338.017 375.87 342.308 379.015 346.591C376.396 347.652 373.808 348.684 371.036 349.274C360.427 351.53 346.302 348.522 337.328 342.508C329.192 337.055 323.646 328.166 321.767 318.604C320.068 309.961 320.876 299.311 326.031 291.906C329.221 287.323 333.262 285.099 338.654 284.105Z"/>
	<path fill="#F5FAF2" transform="matrix(1.2002 0 0 1.2002 -3.05176e-05 0)" d="M541.377 493.401C545.667 494.011 550.71 497.335 553.784 500.289C558.241 504.572 561.663 510.692 561.551 517.003C561.507 519.442 561.139 522.552 559.35 524.359C558.509 524.315 558.6 524.502 558.119 523.93C556.806 522.371 556.386 519.643 555.795 517.702C553.691 510.788 549.709 506.603 544.32 502.109C548.375 509.924 552.438 518.294 551.64 527.376C551.362 530.546 549.962 533.14 547.375 535.056C545.035 536.789 540.968 537.494 538.126 536.966C539.989 534.952 541.99 533.063 542.266 530.181C542.588 526.814 540.534 523.738 538.522 521.259L538.079 520.722C535.541 524.482 534.333 529.042 531.455 532.599C528.797 535.885 525.638 536.544 521.623 536.965C509.742 538.156 498.855 537.961 487.536 542.634C484.053 544.072 476.082 547.217 474.588 550.761C475.1 551.836 475.531 552.819 475.866 553.967C475.026 554.875 474.897 554.743 473.751 555.015C472.949 554.755 472.52 554.79 472.001 554.063C468.468 549.116 472.72 531.744 474.051 525.67C511.118 524.543 512.429 509.864 541.377 493.401Z"/>
	<path fill="#E5A8A7" transform="matrix(1.2002 0 0 1.2002 -3.05176e-05 0)" d="M286.156 193.769C288.347 199.373 287.336 209.626 288.151 215.978C291.43 241.552 302.735 270.446 319.823 289.811C318.776 292.08 317.761 294.342 316.999 296.725C313.23 308.509 313.4 322.134 319.25 333.231C323.43 341.158 329.917 345.444 336.537 351.124C340.16 354.232 343.377 357.787 346.912 360.99C355.541 368.808 365.609 373.152 376.632 376.499C371.306 380.284 366.689 384.112 362.189 388.849L358.716 392.541C350.484 389.234 342.329 385.828 334.559 381.514C303.916 364.5 284.562 338.275 275.083 304.742C264.984 269.016 267.892 226.506 286.156 193.769Z"/>
	<path fill="#E5A8A7" transform="matrix(1.2002 0 0 1.2002 -3.05176e-05 0)" d="M311.948 52.9451C312.148 55.9141 307.45 62.3216 306.154 65.3444C301.727 75.6656 301.003 88.984 304.104 99.746C307.382 111.124 312.716 119.289 323.126 125.111C319.778 124.599 316.949 124.048 313.69 125.401C308.509 127.553 306.382 132.999 304.308 137.78C301.929 137.549 299.804 137.507 297.679 138.763C293.867 141.015 293.127 146.201 292.253 150.156C289.74 149.098 287.291 148.389 284.656 147.723C282.975 148.18 281.183 148.646 279.743 149.663C277.381 151.331 275.646 153.775 275.325 156.689C274.874 160.775 276.709 163.454 279.049 166.52C276.83 167.918 275.237 169.295 274.557 171.94C273.566 175.792 275.164 179.44 277.043 182.726C245.353 201.824 230.825 231.858 219.599 265.526C219.314 265.001 219.033 264.48 218.772 263.943C207.734 241.258 194.677 213.002 203.384 187.604C206.479 181.111 211.063 176.422 216.126 171.45C201.454 177.925 188.451 191.132 180.224 204.718C177.242 209.643 174.799 214.958 172.246 220.116C171.1 192.777 174.317 164.085 186.323 139.194C197.165 116.716 215.534 99.3232 239.277 91.1345C253.398 86.2643 271.696 83.5811 285.312 91.3972C289.626 93.8734 293.182 97.6255 297.669 99.8172C298.765 97.0675 291.226 90.88 291.58 86.0956C292.529 73.265 302.607 60.9152 311.948 52.9451Z"/>
	<path fill="#457B9D" transform="matrix(1.2002 0 0 1.2002 -3.05176e-05 0)" d="M371.327 427.213C385.643 426.35 401.352 432.051 413.173 439.817C420.132 444.388 426.563 449.489 434.483 452.333C434.514 459.286 434.937 466.237 434.918 473.191C434.893 482.617 434.323 492.088 433.927 501.508C416.336 488.302 408.311 470.816 396.852 453.139C395.428 450.943 394.356 449.094 391.667 448.509C391.016 448.84 390.564 448.841 390.338 449.605C389.42 452.702 391.866 457.803 393.251 460.655C405.594 486.063 421.595 505.756 449.018 515.147C441.55 531.901 440.682 551.069 444.408 568.819C433.079 567.028 422.102 564.36 411.495 559.927C383.346 548.161 364.911 528.846 353.439 500.78C350.634 493.917 349.126 486.591 346.338 479.822L345.681 479.813C344.388 496.406 350.945 515.26 359.794 529.084C371.9 547.995 391.401 563.007 412.625 570.228C420.628 572.951 428.979 574.595 437.229 576.368C406.248 590.606 384.461 612.699 360.309 636.083C356.612 635.378 352.86 634.531 349.289 633.336C341.415 630.702 334.621 626.261 330.862 618.56C326.165 608.938 325.793 597.086 325.289 586.558C323.517 549.536 327.827 513.387 339.89 478.268C342.965 469.315 352.468 443.254 357.851 436.973C358.731 435.946 360.14 435.334 361.333 434.749L360.966 428.324C364.405 427.761 367.856 427.496 371.327 427.213Z"/>
	<path fill="#457B9D" transform="matrix(1.2002 0 0 1.2002 -3.05176e-05 0)" d="M787.833 345.481L788.873 345.529C790.867 350.774 760.778 465.388 757.404 479.102C737.652 485.393 718.385 494.019 698.923 501.219C670.954 511.566 642.646 520.847 615.191 532.55C614.864 532.667 614.354 532.641 614.003 532.664C613.432 531.154 613.8 529.614 614.097 528.076C615.788 519.321 618.077 510.633 620.05 501.933Q626.998 470.739 634.523 439.678C638.408 423.221 641.262 405.633 645.897 389.54C663.589 383.144 681.938 378.315 699.935 372.841Q743.994 359.515 787.833 345.481Z"/>
	<path fill="#F5FAF2" transform="matrix(1.2002 0 0 1.2002 -3.05176e-05 0)" d="M685.975 444.111C686.693 444.137 686.96 444.373 687.563 444.735C687.771 445.798 687.854 446.099 687.229 447.087C685.231 450.248 678.566 451.126 675.098 451.988L673.744 450.856C673.512 450.147 673.21 449.911 673.631 449.207C675.509 446.066 682.659 444.886 685.975 444.111Z"/>
	<path fill="#F5FAF2" transform="matrix(1.2002 0 0 1.2002 -3.05176e-05 0)" d="M683.797 461.053C685.102 461.189 685.037 461.16 685.902 462.147C685.837 462.318 685.788 462.496 685.707 462.661C683.922 466.298 676.204 468.323 672.665 469.478L671.016 469.263L670.35 467.799L670.189 468.176L670.839 469.218C670.525 468.49 670.056 468.081 670.489 467.313C672.622 463.532 679.919 462.062 683.797 461.053Z"/>
	<path fill="#F5FAF2" transform="matrix(1.2002 0 0 1.2002 -3.05176e-05 0)" d="M687.619 427.059C688.94 427.046 690.319 427.298 691.264 428.195C691.163 428.601 691.146 428.797 690.867 429.175C688.463 432.437 682.452 433.876 678.798 434.966L677.502 434.933C676.411 434.132 676.203 433.973 675.662 432.745L676.28 431.487C679.527 428.987 683.735 428.134 687.619 427.059Z"/>
	<path fill="#F5FAF2" transform="matrix(1.2002 0 0 1.2002 -3.05176e-05 0)" d="M736.576 427.09C737.639 427.467 737.821 427.301 738.418 428.32C738.33 428.769 738.296 429.069 738.088 429.503C736.355 433.115 725.092 435.684 721.393 436.929C721.139 436.742 720.848 436.598 720.633 436.369C719.789 435.471 719.873 434.906 720.078 433.836C723.772 429.833 731.516 428.371 736.576 427.09Z"/>
	<path fill="#F5FAF2" transform="matrix(1.2002 0 0 1.2002 -3.05176e-05 0)" d="M708.091 453.101C709.187 453.512 708.996 453.436 709.606 454.274L709.418 455.373C706.329 459.499 697.019 461.126 692.102 462.494C691.138 461.972 690.825 461.517 690.265 460.585C690.38 460.309 690.455 460.012 690.61 459.757C692.851 456.081 703.926 454.13 708.091 453.101Z"/>
	<path fill="#F5FAF2" transform="matrix(1.2002 0 0 1.2002 -3.05176e-05 0)" d="M731.779 444.499C733.383 444.522 733.288 444.571 734.458 445.69L734.189 446.871C730.339 451.047 721.98 452.694 716.626 454.286C715.947 454.511 715.517 454.338 714.829 454.207C714.677 453.753 714.324 452.914 714.264 452.451C717.712 447.746 726.413 446.157 731.779 444.499Z"/>
	<path fill="#F5FAF2" transform="matrix(1.2002 0 0 1.2002 -3.05176e-05 0)" d="M740.674 409.603C741.739 410.034 742.222 410.471 742.985 411.323L742.924 412.316C739.224 416.43 730.66 417.99 725.416 419.429C724.858 419.532 724.485 419.405 723.939 419.287C723.283 418.214 722.998 418.113 723.062 416.809C726.433 412.623 735.568 411.028 740.674 409.603Z"/>
	<path fill="#F5FAF2" transform="matrix(1.2002 0 0 1.2002 -3.05176e-05 0)" d="M714.336 418.577C715.881 418.387 717.176 418.338 718.518 419.103L718.5 419.954C715.152 424.85 705.037 426.246 699.616 428.128C699.326 428.228 699.047 428.366 698.748 428.428C697.335 428.721 696.691 428.14 695.513 427.475C695.236 426.713 695.016 426.728 695.312 426.152C697.533 421.821 709.764 419.646 714.336 418.577Z"/>
	<path fill="#F5FAF2" transform="matrix(1.2002 0 0 1.2002 -3.05176e-05 0)" d="M713.25 434.491C714.405 434.77 714.451 434.834 715.233 435.736C715.199 436.654 715.291 436.943 714.798 437.768C711.941 442.55 699.791 444.604 694.613 445.942L693.596 445.718C693.36 445.439 693.025 445.082 692.899 444.738C692.644 444.044 692.596 443.274 692.955 442.625C695.268 438.444 708.693 435.875 713.25 434.491Z"/>
	<path fill="#F5FAF2" transform="matrix(1.2002 0 0 1.2002 -3.05176e-05 0)" d="M686.46 402.868C687.015 402.852 687.431 402.821 688.001 402.9C689.748 403.141 691.391 403.974 692.447 405.409C693.593 406.965 693.842 408.882 693.515 410.751C692.995 413.714 691.457 415.036 689.064 416.647C686.779 416.443 684.688 416.155 683.085 414.33C681.989 413.083 681.588 411.496 681.786 409.863C682.175 406.649 684.018 404.764 686.46 402.868Z"/>
	<path fill="#F5FAF2" transform="matrix(1.2002 0 0 1.2002 -3.05176e-05 0)" d="M739.271 384.52C739.467 384.491 739.662 384.454 739.859 384.433C741.963 384.211 744.314 384.309 745.959 385.828C747.176 386.952 747.502 388.488 747.346 390.07C747.002 393.561 744.997 395.477 742.46 397.64C740.384 397.873 737.862 397.836 736.212 396.345C735.111 395.35 734.704 393.842 734.786 392.402C734.988 388.873 736.812 386.841 739.271 384.52Z"/>
	<path fill="#F5FAF2" transform="matrix(1.2002 0 0 1.2002 -3.05176e-05 0)" d="M711.7 394.487C712.546 394.431 713.41 394.366 714.258 394.417C715.918 394.515 717.686 395.354 718.673 396.724C719.581 397.982 719.794 399.616 719.546 401.115C718.995 404.45 717.084 406.352 714.411 408.193C714.22 408.191 714.029 408.197 713.839 408.187C711.751 408.082 709.319 407.504 707.957 405.769C706.776 404.265 706.484 402.7 706.816 400.854C707.362 397.815 709.342 396.235 711.7 394.487Z"/>
	<path fill="#F5FAF2" transform="matrix(1.2002 0 0 1.2002 -3.05176e-05 0)" d="M438.741 167.151C452.052 184.323 457.983 199.532 476.55 213.612C492.892 226.004 509.883 231.022 530.29 228.18C526.999 225.963 523.263 224.282 519.728 222.481C524.82 223.475 533.166 224.362 537.371 227.618C538.58 228.555 538.99 229.551 539.109 231.026C539.773 232.175 539.963 232.924 541.172 233.562C541.975 232.569 541.97 231.814 541.864 230.57C541.009 220.52 529.619 207.826 525.026 197.827C538.311 211.565 550.74 227.741 554.877 246.726C549.943 241.161 545.779 236.236 538.145 234.508C533.234 235.464 530.337 237.12 527.383 241.306C518.442 253.981 518.872 277.326 521.776 291.806C522.661 296.222 524.83 306.018 528.491 308.664C531.107 309.241 536.024 306.962 538.429 305.651C539.468 301.795 540.707 297.83 541.236 293.868C542.568 283.9 541.086 268.903 535.854 260.129C534.803 258.366 533.117 256.378 530.993 255.97C529.523 255.688 528.383 256.111 527.051 256.622L526.551 256.978L525.44 256.775L525.153 256.064C525.878 252.141 528.295 247.203 531.734 245.015C533.196 244.086 534.929 243.69 536.628 244.116C539.722 244.891 542.93 248.096 544.781 250.554C552.198 260.404 552.901 272.285 552.375 284.081C552.158 288.954 551.833 293.874 553.343 298.6C555.995 306.896 563.243 309.268 567.439 316.024C570.347 320.707 569.813 326.683 568.516 331.811C565.298 344.529 557.238 353.492 546.095 360.12C520.996 375.048 477.867 381.637 449.32 377.434C445.61 376.888 442.589 375.559 439.04 374.671C438.886 374.789 438.72 374.893 438.578 375.025C434.242 379.027 434.519 396.734 434.497 402.934C439.981 405.207 444.217 408.409 448.409 412.561C445.904 415.957 443.486 419.367 441.197 422.913C436.169 419.341 430.281 417.287 425.108 413.976C418.469 409.726 413.094 404.687 405.969 400.93C408.472 398.001 410.412 395.203 411.569 391.469C414.376 382.414 410.636 373.805 406.517 365.903C417.676 369.209 433.278 374.138 444.775 372.882C446.772 372.664 447.859 372.273 449.127 370.699C449.119 369.589 448.905 368.836 448.263 367.912C444.142 361.981 438.477 356.91 434.179 350.955C420.183 331.564 409.743 309.099 413.834 284.74C415.996 271.87 421.813 257.267 432.998 249.623C437.727 246.392 443.525 244.804 449.185 246.066C463.303 249.213 472.364 265.365 479.356 276.669C476.207 263.004 471.692 248.79 459.046 241.028C451.82 236.592 443.313 235.381 435.101 237.416C422.633 240.506 414.492 249.495 408.051 260.076C407.93 227.404 421.223 194.286 438.741 167.151Z"/>
	<path fill="#1D3759" transform="matrix(1.2002 0 0 1.2002 -3.05176e-05 0)" d="M493.669 332.194C498.145 333.102 501.536 337.135 506.012 337.483C509.579 337.76 513.44 333.392 516.766 334.315C517.221 335.788 516.912 336.341 516.528 337.806C513.898 340.209 511.195 341.828 507.63 342.401C504.182 342.955 500.532 342.426 497.716 340.247C494.909 338.076 494.21 335.565 493.669 332.194Z"/>
	<path fill="#1D3759" transform="matrix(1.2002 0 0 1.2002 -3.05176e-05 0)" d="M438.842 207.183C442.569 207.248 445.93 207.832 449.452 209.007C451.093 209.554 452.728 210.065 453.553 211.7L453.16 212.662C447.803 214.616 441.414 212.838 435.778 213.358C433.228 213.594 430.786 214.434 428.365 215.223C424.313 216.867 420.616 219.15 416.858 221.363Q418.261 218.967 420.026 216.825C424.934 210.761 431.302 208.025 438.842 207.183Z"/>
	<path fill="#1D3759" transform="matrix(1.2002 0 0 1.2002 -3.05176e-05 0)" d="M441.172 263.364C443.62 260.73 446.75 258.374 450.473 258.135C454.326 257.887 457.707 260.167 460.38 262.71C469.874 271.741 473.379 286.302 473.586 298.982C473.653 303.122 473.283 306.986 472.324 311.02L474.882 314.05C463.946 320.908 464.132 324.542 449.905 323.267C448.168 324.778 446.509 325.903 444.472 326.976L447.19 321.85C442.415 317.943 439.373 313.838 436.804 308.241C434.938 303.26 433.733 298.276 433.379 292.953C432.731 283.205 434.497 270.939 441.172 263.364Z"/>
	<path fill="#457B9D" transform="matrix(1.2002 0 0 1.2002 -3.05176e-05 0)" d="M444.989 262.759C448.371 261.241 451.12 260.767 454.687 262.037C460.49 264.105 464.37 269.648 466.776 275.075C471.215 285.088 474.321 302.025 470.216 312.522C468.787 316.178 466.282 319.075 462.641 320.629C458.974 322.194 454.346 322.541 450.637 320.934C445.887 318.876 442.262 313.94 439.708 309.584C436.385 301.67 434.955 293.484 435.691 284.91C436.416 276.484 438.317 268.435 444.989 262.759Z"/>
	<path fill="#E5A8A7" transform="matrix(1.2002 0 0 1.2002 -3.05176e-05 0)" d="M452.129 105.707C459.816 105.106 468.25 106.552 475.658 108.57C507.359 117.201 537.368 139.124 553.758 167.765C568.172 192.952 571.052 224.423 563.432 252.192C559.412 229.818 547.336 212.198 532.008 195.907C528.399 192.071 523.916 188.892 520.597 184.825C517.284 180.765 514.96 175.953 512.173 171.533C509.012 166.524 505.201 162.454 500.89 158.427C509.754 173.037 512.926 187.935 519.945 203.041C522.554 208.654 525.9 213.674 529.394 218.753C512 211.667 499.588 203.751 486.515 190.223C493.62 207.284 501.571 213.066 515.84 224.11C483.319 217.417 459.053 188.94 443.426 161.168C437.629 150.866 433.039 139.825 426.387 130.026C428.138 140.757 431.607 150.224 436.035 160.1C413.038 192.062 403.598 224.216 400.064 263.169C399.056 261.694 398.276 260.247 396.612 259.443L395.803 259.818C395.612 260.428 395.555 260.493 395.536 261.235C395.449 264.541 397.374 266.783 399.609 268.905C399.67 274.757 400.197 280.595 400.632 286.429C404.891 319.228 418.877 343.143 441.329 366.797C424.899 364.695 407.416 360.722 393.923 350.629C372.72 334.77 364.627 305.298 361.001 280.251C355.624 243.105 364.228 199.691 382.445 166.843C385.778 160.833 389.718 155.378 393.815 149.883C390.916 152.384 388.083 154.906 385.512 157.75C378.96 164.999 374.005 173.715 369.761 182.471C354.652 213.649 352.006 245.64 353.554 279.751C349.792 278.187 346.047 276.806 341.951 276.476C334.838 275.904 329.784 279.082 324.608 283.484C304.542 261.953 294.484 230.863 291.653 201.952C290.156 186.664 292.916 174.224 302.842 162.256C322.149 138.975 352.727 121.87 382.688 117.51C391.937 116.164 401.408 117.061 410.576 115.366C417.461 114.093 423.886 111.28 430.563 109.267C437.64 107.134 444.804 106.355 452.129 105.707Z"/>
	<path fill="#1D3759" transform="matrix(1.2002 0 0 1.2002 -3.05176e-05 0)" d="M469.342 670.216C482.184 669.884 493.944 671.856 505.654 677.295C527.99 687.669 543.001 704.955 551.379 727.865C542.095 714.174 531.123 701.045 516.781 692.454C494.453 679.08 469.629 677.993 444.868 684.25Q439.674 685.83 434.657 687.902C407.728 698.962 389.808 722.443 378.742 748.65C380.886 731.103 385.45 716.69 397.181 703.083C415.723 681.579 441.673 672.32 469.342 670.216Z"/>
</svg>
